<?xml version="1.0" standalone="no"?>
<!DOCTYPE svg PUBLIC "-//W3C//DTD SVG 20010904//EN"
 "http://www.w3.org/TR/2001/REC-SVG-20010904/DTD/svg10.dtd">
<svg version="1.0" xmlns="http://www.w3.org/2000/svg"
 width="736.000000pt" height="736.000000pt" viewBox="0 0 736.000000 736.000000"
 preserveAspectRatio="xMidYMid meet">
<metadata>
Created by potrace 1.14, written by Peter Selinger 2001-2017
</metadata>
<g transform="translate(0.000000,736.000000) scale(0.100000,-0.100000)"
fill="#000000" stroke="none">
<path d="M3479 7355 c-2 -2 -31 -6 -64 -9 -85 -8 -148 -16 -165 -22 -8 -3 -33
-8 -55 -11 -48 -6 -237 -54 -320 -81 -167 -54 -379 -153 -534 -248 -35 -21
-71 -43 -80 -49 -20 -12 -161 -115 -177 -130 -6 -5 -39 -32 -72 -59 -73 -61
-230 -219 -298 -301 -27 -33 -51 -62 -54 -65 -3 -3 -27 -34 -52 -70 -26 -36
-51 -70 -56 -75 -41 -49 -182 -311 -242 -450 -35 -81 -110 -316 -125 -392 -1
-10 -11 -54 -20 -98 -9 -44 -18 -98 -20 -120 -3 -22 -8 -65 -12 -95 -15 -113
-9 -502 11 -605 2 -11 7 -42 10 -68 4 -27 9 -56 11 -65 3 -10 11 -46 19 -82 8
-36 22 -92 32 -125 10 -33 18 -63 18 -67 1 -3 4 -10 8 -14 5 -4 8 -13 8 -21 0
-49 160 -392 243 -520 15 -24 27 -45 27 -48 0 -3 5 -11 10 -18 6 -7 45 -59 88
-117 115 -158 261 -314 392 -422 41 -35 77 -65 80 -68 12 -14 153 -112 231
-160 124 -78 315 -171 473 -230 76 -28 146 -53 155 -55 9 -2 61 -15 116 -29
104 -27 236 -50 365 -63 95 -10 413 -10 505 0 127 14 149 17 250 38 512 105
945 338 1310 704 259 259 418 499 571 860 20 48 84 246 90 278 2 17 9 38 15
48 5 11 8 19 5 19 -2 0 0 17 5 38 14 58 37 200 46 277 16 142 8 509 -13 618
-3 16 -7 38 -9 50 -17 139 -89 394 -158 557 -38 93 -125 264 -161 320 -13 19
-40 63 -62 97 -21 35 -42 63 -46 63 -5 0 -8 5 -8 11 0 40 -319 384 -470 505
-323 261 -742 458 -1115 524 -27 5 -61 12 -75 15 -14 3 -47 8 -75 11 -27 3
-61 8 -75 11 -29 6 -476 14 -481 8z m386 -279 c66 -3 131 -8 145 -11 36 -8 82
-16 105 -20 60 -9 180 -39 250 -61 89 -29 298 -115 360 -149 22 -12 66 -36 97
-53 31 -17 98 -59 149 -93 86 -57 112 -77 177 -136 14 -13 28 -23 31 -23 21 0
331 -336 331 -358 0 -6 4 -12 8 -14 32 -13 187 -275 251 -423 24 -55 47 -107
51 -115 23 -47 94 -305 106 -385 3 -16 9 -52 14 -80 25 -133 28 -426 6 -604
-8 -67 -17 -126 -20 -128 -4 -4 -561 371 -564 379 -2 5 -8 8 -13 8 -9 0 -65
36 -79 50 -3 3 -12 10 -21 15 -10 6 -38 25 -63 43 -26 17 -51 32 -56 32 -4 0
-10 3 -12 8 -1 4 -73 54 -158 111 -85 58 -198 134 -250 169 -124 85 -177 111
-209 105 -14 -3 -32 -6 -39 -7 -7 -1 -54 -31 -105 -67 -50 -35 -96 -66 -102
-68 -5 -2 -12 -7 -15 -11 -4 -6 -114 -85 -525 -379 -65 -47 -149 -107 -185
-133 -36 -26 -98 -70 -137 -97 l-73 -49 -72 35 c-40 19 -98 47 -128 61 -30 15
-57 27 -60 27 -3 0 -39 17 -80 37 -159 77 -311 148 -317 148 -3 0 -19 7 -36
15 -48 21 -89 24 -122 7 -34 -17 -134 -82 -151 -97 -6 -5 -27 -19 -47 -30 -20
-11 -37 -23 -37 -27 0 -5 -5 -8 -10 -8 -6 0 -28 -12 -49 -27 -63 -45 -73 -52
-269 -185 -103 -70 -191 -131 -197 -136 -22 -17 -243 -162 -248 -162 -6 0 -24
48 -33 90 -10 46 -11 50 -14 53 -1 1 -3 11 -5 22 -2 11 -6 34 -8 50 -10 53
-17 99 -23 135 -3 19 -6 81 -7 137 -1 57 -4 103 -7 103 -3 0 -5 26 -4 58 4
100 14 256 18 277 2 11 7 42 10 69 4 27 9 52 11 55 1 3 6 24 9 46 13 83 72
277 114 380 55 131 203 404 232 425 3 3 9 12 12 20 22 56 312 371 414 450 11
8 40 31 64 51 133 106 289 197 510 296 169 77 465 151 669 169 24 2 45 5 47 7
4 4 215 0 359 -7z m779 -2123 c72 -49 136 -92 141 -96 6 -4 64 -44 130 -89
397 -266 601 -404 605 -408 3 -3 13 -9 22 -15 55 -32 308 -209 308 -215 0 -18
-52 -154 -89 -235 -59 -127 -151 -285 -166 -285 -7 0 -43 13 -81 28 -71 29
-245 89 -280 96 -19 4 -90 21 -129 32 -20 5 -53 12 -90 18 -11 2 -31 7 -45 10
-14 3 -41 8 -60 11 -19 3 -78 12 -130 20 -109 17 -152 22 -230 30 -30 2 -75 7
-100 10 -100 11 -278 18 -775 30 -390 9 -705 21 -711 28 -5 5 517 388 574 422
9 6 19 13 22 16 5 5 301 218 350 251 14 10 50 36 80 58 30 22 71 51 90 65 19
13 122 87 229 165 107 77 197 140 199 140 2 0 63 -39 136 -87z m-2026 -394
c143 -64 442 -207 442 -212 0 -3 -36 -31 -81 -64 -44 -32 -87 -64 -94 -70 -8
-7 -18 -13 -23 -13 -6 0 -12 -4 -14 -8 -1 -5 -72 -58 -157 -118 -121 -85 -161
-109 -185 -108 -30 1 -121 12 -155 19 -9 1 -38 6 -66 9 -48 6 -144 22 -195 32
-14 3 -34 6 -45 8 -11 2 -38 7 -60 12 -22 4 -42 9 -45 9 -3 1 -24 5 -47 9 -24
4 -43 13 -43 19 0 7 41 39 92 72 50 33 96 65 102 70 6 6 85 60 176 120 90 61
169 114 175 118 19 15 170 117 173 117 2 0 24 -9 50 -21z m-903 -733 c18 -5
129 -30 183 -41 101 -22 218 -44 267 -50 22 -2 51 -7 65 -10 22 -4 49 -8 135
-20 11 -1 47 -6 80 -9 33 -4 76 -9 95 -12 19 -3 62 -7 95 -10 33 -2 76 -6 95
-9 55 -6 187 -16 280 -20 239 -13 323 -15 986 -30 127 -3 249 -8 270 -10 22
-2 84 -7 138 -10 55 -4 108 -8 117 -10 10 -2 49 -7 86 -10 37 -4 75 -8 83 -10
8 -2 35 -7 60 -10 25 -3 68 -10 95 -15 28 -5 61 -12 75 -14 14 -2 44 -9 68
-14 23 -5 42 -8 42 -6 0 3 8 0 18 -5 9 -5 31 -11 47 -14 104 -19 336 -103 329
-120 -11 -29 -297 -297 -379 -355 -279 -198 -589 -338 -880 -398 -173 -35
-290 -47 -485 -47 -609 -3 -1172 229 -1611 662 -165 163 -295 332 -388 506
-18 33 -37 64 -42 70 -5 5 -9 15 -9 23 0 13 24 12 85 -2z"/>
<path d="M2503 244 c-2 -6 -3 -48 -1 -94 3 -71 6 -84 21 -86 19 -2 36 28 32
56 -1 10 9 17 34 20 48 7 49 33 2 40 -19 3 -36 11 -39 18 -4 12 1 14 56 14 24
1 32 5 32 19 0 11 -8 20 -17 20 -67 5 -116 2 -120 -7z"/>
<path d="M2784 248 c-18 -4 -38 -18 -47 -31 -20 -31 -14 -104 11 -127 32 -30
97 -30 133 1 19 17 24 30 24 70 0 42 -4 53 -25 69 -31 24 -57 28 -96 18z m62
-63 c3 -14 3 -37 0 -51 -5 -20 -12 -25 -34 -22 -24 3 -27 8 -30 42 -3 40 8 56
40 56 11 0 20 -10 24 -25z"/>
<path d="M2994 246 c-2 -6 -2 -39 0 -74 2 -46 9 -69 22 -82 23 -24 70 -28 111
-11 33 13 41 35 44 121 2 54 0 58 -18 55 -10 -2 -23 -4 -30 -4 -7 -1 -11 -23
-12 -61 0 -69 -4 -80 -32 -80 -24 0 -28 10 -32 84 -3 54 -6 60 -26 61 -13 1
-25 -3 -27 -9z"/>
<path d="M3259 226 c-4 -150 1 -173 34 -160 11 4 17 20 19 50 l3 44 35 -47
c25 -34 42 -47 61 -48 l27 -1 -2 95 c-1 95 -1 95 -26 95 -21 0 -25 -5 -26 -29
-3 -69 -9 -71 -43 -16 -17 27 -33 41 -53 43 -25 4 -28 2 -29 -26z"/>
<path d="M3535 251 c-3 -2 -5 -46 -5 -96 l0 -92 63 4 c81 5 107 30 103 98 -4
63 -26 83 -99 87 -32 2 -60 2 -62 -1z m102 -63 c14 -33 1 -72 -25 -76 -20 -3
-22 1 -22 47 0 43 3 51 18 51 11 0 23 -10 29 -22z"/>
<path d="M4000 252 c-15 -5 -12 -43 3 -41 45 6 47 2 45 -70 -3 -69 -3 -70 25
-74 30 -4 31 1 28 101 -1 41 6 49 41 43 4 0 12 8 18 19 12 22 16 21 -90 24
-33 0 -64 0 -70 -2z"/>
<path d="M4252 251 c-6 -3 -10 -45 -10 -96 0 -89 0 -91 24 -90 13 1 26 4 29 7
8 8 9 167 1 175 -9 10 -32 12 -44 4z"/>
<path d="M4441 244 c-55 -23 -69 -97 -28 -146 37 -45 121 -39 150 11 24 40 21
74 -8 109 -29 34 -71 44 -114 26z m67 -46 c7 -7 12 -24 12 -38 0 -46 -50 -70
-68 -32 -26 53 18 108 56 70z"/>
<path d="M4671 250 c-8 -4 -11 -36 -9 -95 3 -75 6 -89 21 -91 21 -3 34 22 31
59 -4 35 16 32 33 -5 16 -33 32 -45 63 -50 l25 -3 0 94 c0 90 -1 94 -22 96
-24 2 -31 -14 -28 -63 1 -18 -1 -32 -4 -32 -3 0 -19 20 -36 45 -30 44 -53 59
-74 45z"/>
<path d="M3795 193 c-10 -32 -20 -62 -24 -68 -3 -5 -6 -14 -7 -20 -1 -5 -5
-17 -8 -25 -9 -22 43 -19 56 3 12 23 50 21 77 -2 12 -11 30 -17 41 -14 23 6
23 7 11 31 -6 9 -20 47 -31 85 l-22 67 -37 0 c-38 0 -38 -1 -56 -57z m69 -19
c9 -23 8 -24 -13 -24 -14 0 -18 5 -14 20 6 24 19 26 27 4z"/>
</g>
</svg>
