<svg width="80" height="96" viewBox="0 0 80 96" fill="none" xmlns="http://www.w3.org/2000/svg">
<path fill-rule="evenodd" clip-rule="evenodd" d="M35.9522 0.198419C29.1605 0.928429 23.1177 3.10778 17.5803 6.82441C12.6878 10.1081 8.36089 14.7031 5.3889 19.7708C-0.909234 30.5104 -1.7394 43.743 3.17576 55.0466C8.0822 66.3304 17.6722 74.5997 29.6206 77.8497C34.9133 79.2894 41.0219 79.5978 46.4356 78.6988C52.3211 77.7215 57.5524 75.6566 62.4201 72.3895C67.3126 69.1058 71.6395 64.5108 74.6115 59.443C81.7962 47.1917 81.7962 32.0222 74.6115 19.7708C72.0658 15.43 68.3733 11.2634 64.3923 8.23973C59.5067 4.52907 54.2817 2.14068 48.2001 0.838198C44.4086 0.0262265 39.7962 -0.214738 35.9522 0.198419ZM44.4634 4.52646C48.8978 5.13452 52.2643 6.16621 56.1123 8.09643C59.8708 9.98186 62.8331 12.1644 65.7954 15.2305C71.3132 20.942 74.6063 27.9465 75.5007 35.874C75.7056 37.6902 75.7058 41.374 75.5011 43.1659C75.3156 44.7901 75.1353 45.9398 75.0662 45.9398C75.0181 45.9398 59.5525 35.5162 56.0367 33.1141C53.7795 31.5719 53.5568 31.461 52.8272 31.5145C52.5087 31.5379 52.1064 31.6285 51.9331 31.7158C51.668 31.8495 46.6883 35.4074 36.539 42.7146C35.4345 43.5098 34.4959 44.1604 34.453 44.1604C34.3725 44.1604 30.4073 42.3205 27.1814 40.7863C22.7521 38.6798 22.4465 38.5854 21.5463 39.045C21.1695 39.2373 17.2193 41.8872 13.6879 44.3165C10.2284 46.6963 5.90529 49.6035 5.82599 49.6035C5.71648 49.6035 5.15505 47.3872 4.87137 45.8352C4.16743 41.9837 4.14989 37.3237 4.82518 33.5357C6.39219 24.7455 11.1581 17.0128 18.4304 11.4615C23.2839 7.75645 29.4227 5.28159 35.5889 4.54404C36.3025 4.45873 37.0498 4.36882 37.2496 4.34443C38.0775 4.24299 43.3705 4.37667 44.4634 4.52646ZM56.8892 38.8517C58.9607 40.2551 63.5749 43.373 67.1429 45.7803C70.7109 48.1875 73.7084 50.2252 73.804 50.3082C73.9653 50.4482 73.9516 50.5324 73.6159 51.4676C73.0839 52.9497 72.5814 54.1115 71.8863 55.4654C71.3183 56.5722 70.0729 58.7103 69.9964 58.7103C69.9785 58.7103 69.4342 58.4826 68.7869 58.2044C65.4721 56.7796 60.991 55.6942 55.5696 55.0028C51.576 54.4935 49.2105 54.3461 42.9065 54.2131C33.5531 54.0158 28.7383 53.833 28.7383 53.6753C28.7383 53.5882 29.5713 52.985 43.8926 42.6996C48.4881 39.3991 52.3883 36.5898 52.5595 36.4565C52.7308 36.3233 52.9276 36.2337 52.9968 36.2572C53.0662 36.2809 54.8177 37.4483 56.8892 38.8517ZM25.5034 44.7215C29.9758 46.8123 30.3993 47.0165 30.3955 47.0816C30.3918 47.1487 22.5198 52.8238 22.1588 53.0197C21.9865 53.1132 21.331 53.0514 19.0898 52.7305C17.5223 52.5061 15.5606 52.1861 14.7303 52.0192C13.9002 51.8525 12.7655 51.6293 12.209 51.5233C11.6526 51.4173 11.2115 51.287 11.2291 51.2336C11.2466 51.1803 12.0055 50.6302 12.9156 50.0112C13.8256 49.3923 16.3684 47.6601 18.5663 46.1619C20.7642 44.6636 22.6015 43.4356 22.649 43.4327C22.6967 43.4299 23.9812 44.0098 25.5034 44.7215ZM10.0179 55.3997C17.1679 57.072 25.4389 58.027 35.018 58.2862C37.2444 58.3465 41.2613 58.4422 43.9445 58.4991C46.6276 58.5559 49.3133 58.6493 49.9127 58.7065C50.5121 58.7638 51.5631 58.8576 52.2481 58.9148C56.278 59.2519 60.4016 59.9665 63.51 60.8667C65.1271 61.335 67.3505 62.1592 67.3505 62.2903C67.3505 62.4777 63.765 66.0073 62.7315 66.8372C57.2782 71.2169 51.2361 73.8142 44.4793 74.6833C42.46 74.9431 38.6497 74.9932 36.6212 74.7866C32.0294 74.3188 28.3566 73.287 24.3269 71.3326C18.2992 68.4091 13.0743 63.72 9.62066 58.1346C9.01927 57.162 7.87533 55.109 7.87533 55.0024C7.87533 54.9036 7.97685 54.9224 10.0179 55.3997ZM21.5764 94.5095V95.975H21.9916H22.4068V95.3992V94.8235H22.9777C23.5427 94.8235 23.5485 94.8204 23.5485 94.5095C23.5485 94.1986 23.5427 94.1955 22.9777 94.1955C22.4379 94.1955 22.4068 94.1812 22.4068 93.9338C22.4068 93.6815 22.431 93.6721 23.0815 93.6721H23.7561V93.3581V93.044H22.6663H21.5764V94.5095ZM25.7563 93.1993C25.231 93.4296 24.9827 93.9205 25.0285 94.6389C25.0732 95.3426 25.3374 95.7019 25.9453 95.8855C27.1859 96.2603 28.1851 95.3907 27.9522 94.1387C27.7879 93.2556 26.6946 92.7878 25.7563 93.1993ZM29.2741 94.1934C29.3069 95.2689 29.3265 95.3601 29.5795 95.615C29.9461 95.9844 30.9005 96.0786 31.437 95.7984C31.9068 95.5529 32.0464 95.137 32.054 93.96L32.0598 93.044H31.5927H31.1256V94.0699C31.1256 95.1577 31.0542 95.3469 30.6437 95.3469C30.2363 95.3469 30.0877 94.9769 30.0877 93.9628V93.044H29.6634H29.2389L29.2741 94.1934ZM33.4092 94.5095V95.975H33.8243H34.2395L34.2403 95.1637L34.2411 94.3525L34.7734 95.1637C35.3023 95.9696 35.3087 95.975 35.7587 95.975H36.2117V94.5095V93.044H35.8008H35.39L35.3597 93.8553L35.3294 94.6665L34.7813 93.8553C34.2524 93.0725 34.2188 93.044 33.8212 93.044H33.4092V94.5095ZM37.6648 94.5119V96L38.6535 95.9563C39.5443 95.9171 39.6682 95.8864 39.9064 95.6462C40.4454 95.1025 40.4429 93.9141 39.9016 93.3679C39.6565 93.1206 39.5448 93.0931 38.6487 93.06L37.6648 93.0238V94.5119ZM42.0464 93.3269C41.9885 93.488 41.751 94.1497 41.5186 94.7974L41.0963 95.975H41.5583C41.9645 95.975 42.0282 95.9434 42.0854 95.7133C42.1437 95.4789 42.2034 95.4516 42.6562 95.4516C43.1092 95.4516 43.1688 95.4789 43.2271 95.7133C43.2842 95.9427 43.3485 95.975 43.7481 95.975C43.9988 95.975 44.2017 95.9396 44.199 95.8965C44.1962 95.8533 43.9712 95.2056 43.699 94.4572L43.2041 93.0964L42.6779 93.0652C42.1843 93.0359 42.1454 93.052 42.0464 93.3269ZM44.8267 93.3581C44.8267 93.6605 44.8441 93.6721 45.2938 93.6721H45.7609V94.8235V95.975H46.1761H46.5913V94.8235V93.6721H47.0583C47.5081 93.6721 47.5254 93.6605 47.5254 93.3581V93.044H46.1761H44.8267V93.3581ZM48.771 94.5095V95.975H49.2381H49.7051V94.5095V93.044H49.2381H48.771V94.5095ZM51.8091 93.1993C51.2838 93.4296 51.0355 93.9205 51.0813 94.6389C51.126 95.3426 51.3902 95.7019 51.9981 95.8855C53.2387 96.2603 54.2379 95.3907 54.005 94.1387C53.8407 93.2556 52.7474 92.7878 51.8091 93.1993ZM55.3101 94.5095V95.975H55.7253H56.1405L56.1412 95.1637L56.142 94.3525L56.6744 95.1637C57.2033 95.9696 57.2097 95.975 57.6596 95.975H58.1126V94.5095V93.044H57.7018H57.291L57.2607 93.8553L57.2303 94.6665L56.6823 93.8553C56.1534 93.0725 56.1197 93.044 55.7222 93.044H55.3101V94.5095ZM26.916 93.9048C27.267 94.4102 27.0102 95.3469 26.5206 95.3469C26.0752 95.3469 25.8959 95.1066 25.8959 94.5095C25.8959 94.0926 25.943 93.9257 26.0914 93.8162C26.3804 93.6031 26.7328 93.6409 26.916 93.9048ZM39.2677 93.9048C39.4788 94.2088 39.478 94.9688 39.2663 95.1825C39.1765 95.2729 38.9896 95.3469 38.8511 95.3469C38.6052 95.3469 38.599 95.3264 38.599 94.5095C38.599 93.6912 38.6048 93.6721 38.8525 93.6721C38.997 93.6721 39.1758 93.7723 39.2677 93.9048ZM52.9688 93.9048C53.3198 94.4102 53.063 95.3469 52.5734 95.3469C52.128 95.3469 51.9487 95.1066 51.9487 94.5095C51.9487 94.0926 51.9958 93.9257 52.1442 93.8162C52.4332 93.6031 52.7856 93.6409 52.9688 93.9048ZM42.9505 94.6403C42.9549 94.6835 42.8197 94.7188 42.6502 94.7188C42.4487 94.7188 42.3579 94.6736 42.3877 94.588C42.4127 94.5161 42.4867 94.3158 42.5521 94.1431L42.6711 93.8291L42.8068 94.1955C42.8815 94.397 42.9461 94.5972 42.9505 94.6403Z" fill="#888888"/>
<path fill-rule="evenodd" clip-rule="evenodd" d="M21.5763 94.5091V95.9746H21.9915H22.4067V95.3989V94.8231H22.9775C23.5426 94.8231 23.5484 94.82 23.5484 94.5091C23.5484 94.1982 23.5426 94.1951 22.9775 94.1951C22.4378 94.1951 22.4067 94.1808 22.4067 93.9334C22.4067 93.6811 22.4308 93.6717 23.0813 93.6717H23.756V93.3577V93.0436H22.6662H21.5763V94.5091ZM25.7562 93.1989C25.2308 93.4292 24.9826 93.9201 25.0283 94.6385C25.0731 95.3422 25.3372 95.7015 25.9452 95.8851C27.1857 96.2599 28.185 95.3903 27.9521 94.1383C27.7878 93.2552 26.6945 92.7874 25.7562 93.1989ZM29.274 94.193C29.3068 95.2685 29.3264 95.3597 29.5794 95.6146C29.946 95.984 30.9004 96.0782 31.4369 95.798C31.9067 95.5525 32.0463 95.1366 32.0539 93.9596L32.0597 93.0436H31.5926H31.1255V94.0695C31.1255 95.1573 31.0541 95.3465 30.6436 95.3465C30.2362 95.3465 30.0876 94.9765 30.0876 93.9624V93.0436H29.6632H29.2388L29.274 94.193ZM33.409 94.5091V95.9746H33.8242H34.2394L34.2401 95.1633L34.241 94.3521L34.7733 95.1633C35.3022 95.9692 35.3086 95.9746 35.7586 95.9746H36.2115V94.5091V93.0436H35.8007H35.3899L35.3596 93.8549L35.3293 94.6661L34.7812 93.8549C34.2523 93.0721 34.2186 93.0436 33.8211 93.0436H33.409V94.5091ZM37.6647 94.5115V95.9996L38.6533 95.9559C39.5442 95.9167 39.668 95.886 39.9063 95.6458C40.4453 95.1021 40.4428 93.9137 39.9015 93.3675C39.6564 93.1202 39.5447 93.0927 38.6486 93.0596L37.6647 93.0234V94.5115ZM42.0463 93.3265C41.9884 93.4876 41.7509 94.1493 41.5185 94.797L41.0962 95.9746H41.5582C41.9644 95.9746 42.0281 95.943 42.0852 95.7129C42.1436 95.4785 42.2033 95.4512 42.6561 95.4512C43.1091 95.4512 43.1687 95.4785 43.227 95.7129C43.2841 95.9423 43.3483 95.9746 43.748 95.9746C43.9987 95.9746 44.2015 95.9392 44.1988 95.8961C44.196 95.8529 43.9711 95.2052 43.6989 94.4568L43.204 93.096L42.6778 93.0648C42.1842 93.0355 42.1452 93.0516 42.0463 93.3265ZM44.8266 93.3577C44.8266 93.6601 44.8439 93.6717 45.2937 93.6717H45.7608V94.8231V95.9746H46.1759H46.5911V94.8231V93.6717H47.0582C47.508 93.6717 47.5253 93.6601 47.5253 93.3577V93.0436H46.1759H44.8266V93.3577ZM48.7708 94.5091V95.9746H49.2379H49.705V94.5091V93.0436H49.2379H48.7708V94.5091ZM51.809 93.1989C51.2837 93.4292 51.0354 93.9201 51.0811 94.6385C51.1259 95.3422 51.39 95.7015 51.998 95.8851C53.2385 96.2599 54.2378 95.3903 54.0049 94.1383C53.8406 93.2552 52.7473 92.7874 51.809 93.1989ZM55.31 94.5091V95.9746H55.7252H56.1404L56.1411 95.1633L56.1419 94.3521L56.6743 95.1633C57.2031 95.9692 57.2096 95.9746 57.6595 95.9746H58.1125V94.5091V93.0436H57.7017H57.2908L57.2605 93.8549L57.2302 94.6661L56.6822 93.8549C56.1532 93.0721 56.1196 93.0436 55.7221 93.0436H55.31V94.5091ZM26.9159 93.9044C27.2669 94.4098 27.0101 95.3465 26.5205 95.3465C26.0751 95.3465 25.8958 95.1062 25.8958 94.5091C25.8958 94.0922 25.9429 93.9253 26.0913 93.8158C26.3803 93.6027 26.7327 93.6405 26.9159 93.9044ZM39.2676 93.9044C39.4787 94.2084 39.4779 94.9684 39.2661 95.1821C39.1764 95.2725 38.9895 95.3465 38.851 95.3465C38.6051 95.3465 38.5988 95.326 38.5988 94.5091C38.5988 93.6909 38.6047 93.6717 38.8524 93.6717C38.9969 93.6717 39.1756 93.7719 39.2676 93.9044ZM52.9687 93.9044C53.3197 94.4098 53.0629 95.3465 52.5733 95.3465C52.1279 95.3465 51.9486 95.1062 51.9486 94.5091C51.9486 94.0922 51.9957 93.9253 52.1441 93.8158C52.4331 93.6027 52.7855 93.6405 52.9687 93.9044ZM42.9504 94.6399C42.9547 94.6831 42.8196 94.7185 42.6501 94.7185C42.4485 94.7185 42.3578 94.6732 42.3876 94.5876C42.4126 94.5157 42.4866 94.3155 42.552 94.1427L42.671 93.8287L42.8067 94.1951C42.8814 94.3966 42.946 94.5968 42.9504 94.6399Z" fill="#888888"/>
<path fill-rule="evenodd" clip-rule="evenodd" d="M71.2548 86.1261C71.2548 85.2203 71.8661 84.5937 72.9832 84.3541C73.9779 84.1407 75.4903 84.3927 75.9988 84.8564C76.2536 85.0888 76.5884 85.7528 76.5884 86.0258C76.5884 86.2135 76.5224 86.2395 76.0435 86.2405C75.7437 86.2411 75.3234 86.2709 75.1093 86.3066C74.7888 86.3599 74.7201 86.3405 74.7201 86.1959C74.7201 86.0994 74.6054 85.9049 74.4652 85.7636C74.1612 85.4569 73.5403 85.4142 73.2492 85.6799C72.801 86.0888 73.1219 86.3487 74.504 86.6959C76.3002 87.1471 76.8325 87.6588 76.7725 88.8766C76.743 89.4748 76.6912 89.6354 76.4186 89.9751C76.2428 90.194 75.872 90.491 75.5943 90.6351C75.1491 90.8661 74.96 90.897 73.9965 90.8962C73.3579 90.8957 72.7407 90.8376 72.5118 90.7564C71.7677 90.4931 71.2215 89.8367 71.0398 88.9871L70.9669 88.6469L71.7018 88.6282C72.1059 88.6179 72.5387 88.6062 72.6634 88.602C72.8342 88.5965 72.9117 88.6773 72.9762 88.9282C73.1645 89.661 74.1075 89.9449 74.6862 89.4429C74.9399 89.2228 74.9626 89.1558 74.8721 88.8962C74.7597 88.5737 74.4208 88.4071 73.1051 88.0272C71.8158 87.6549 71.2548 87.0785 71.2548 86.1261ZM3.51599 90.8451V87.6001V84.3552L4.83939 84.3553L6.16279 84.3555L6.56957 85.9516C6.79325 86.8295 7.02232 87.7127 7.07858 87.9142C7.17428 88.2567 7.21248 88.1542 7.66368 86.344L8.14654 84.4075L9.46413 84.3782L10.7817 84.3489V87.597V90.8451H10.0032H9.22477V88.4201C9.22477 87.0864 9.19903 86.0211 9.16758 86.0528C9.13613 86.0845 8.84166 87.164 8.51325 88.4516L7.91611 90.7928L7.18175 90.8232L6.44729 90.8538L6.23327 90.0382C6.11556 89.5896 5.84134 88.522 5.62388 87.6658L5.22863 86.1089L5.2007 88.477L5.17278 90.8451H4.34439H3.51599ZM13.9994 87.6001V90.8451H14.9854H15.9715V87.6001V84.3552H14.9854H13.9994V87.6001ZM19.1892 90.8451V87.6001V84.3552H20.2271H21.2651V86.8151V89.275H22.8221H24.379V90.06V90.8451H21.7841H19.1892ZM27.1815 87.6004V90.8651L29.0758 90.8178C29.551 90.8059 30.0191 90.7836 30.41 90.7563V88.844C31.3048 88.844 31.752 88.8198 31.9755 89.0316C32.1527 89.1996 32.1893 89.5159 32.1968 90.1102C32.4413 89.875 32.6564 89.5903 32.7976 89.2981C33.0024 88.8742 33.0363 88.6402 33.0367 87.6525C33.0373 86.3416 32.832 85.69 32.2347 85.107C31.6122 84.4995 31.2731 84.4197 29.1277 84.3756L27.1815 84.3356V87.6004ZM40.7788 90.8451V87.6001V84.3552H41.8167H42.8547V85.5066V86.6581H43.9445H45.0344V85.5066V84.3552H46.0205H47.0065V87.6001V90.8451H46.0205H45.0344V89.5367V88.2282H43.9445H42.8547V89.5367V90.8451H41.8167H40.7788ZM50.328 87.6001V90.8451H51.3141H52.3001V87.6001V84.3552H51.3141H50.328V87.6001ZM55.5178 90.8451V87.6001V84.3552H56.5558H57.5937V86.8151V89.275H59.1507H60.7076V90.06V90.8451H58.1127H55.5178ZM63.4063 87.6001V90.8451H66.0012H68.5961V90.06V89.275H67.0392H65.4822V86.8151V84.3552H64.4442H63.4063V87.6001Z" fill="#888888"/>
</svg>
