<svg width="80" height="96" viewBox="0 0 80 96" fill="none" xmlns="http://www.w3.org/2000/svg">
<path fill-rule="evenodd" clip-rule="evenodd" d="M35.9522 0.198419C29.1605 0.928429 23.1177 3.10778 17.5803 6.82441C12.6878 10.1081 8.36089 14.7031 5.3889 19.7708C-0.909234 30.5104 -1.7394 43.743 3.17576 55.0466C8.0822 66.3304 17.6722 74.5997 29.6206 77.8497C34.9133 79.2894 41.0219 79.5978 46.4356 78.6988C52.3211 77.7215 57.5524 75.6566 62.4201 72.3895C67.3126 69.1058 71.6395 64.5108 74.6115 59.443C81.7962 47.1917 81.7962 32.0222 74.6115 19.7708C72.0658 15.43 68.3733 11.2634 64.3923 8.23973C59.5067 4.52907 54.2817 2.14068 48.2001 0.838198C44.4086 0.0262265 39.7962 -0.214738 35.9522 0.198419ZM44.4634 4.52646C48.8978 5.13452 52.2643 6.16621 56.1123 8.09643C59.8708 9.98186 62.8331 12.1644 65.7954 15.2305C71.3132 20.942 74.6063 27.9465 75.5007 35.874C75.7056 37.6902 75.7058 41.374 75.5011 43.1659C75.3156 44.7901 75.1353 45.9398 75.0662 45.9398C75.0181 45.9398 59.5525 35.5162 56.0367 33.1141C53.7795 31.5719 53.5568 31.461 52.8272 31.5145C52.5087 31.5379 52.1064 31.6285 51.9331 31.7158C51.668 31.8495 46.6883 35.4074 36.539 42.7146C35.4345 43.5098 34.4959 44.1604 34.453 44.1604C34.3725 44.1604 30.4073 42.3205 27.1814 40.7863C22.7521 38.6798 22.4465 38.5854 21.5463 39.045C21.1695 39.2373 17.2193 41.8872 13.6879 44.3165C10.2284 46.6963 5.90529 49.6035 5.82599 49.6035C5.71648 49.6035 5.15505 47.3872 4.87137 45.8352C4.16743 41.9837 4.14989 37.3237 4.82518 33.5357C6.39219 24.7455 11.1581 17.0128 18.4304 11.4615C23.2839 7.75645 29.4227 5.28159 35.5889 4.54404C36.3025 4.45873 37.0498 4.36882 37.2496 4.34443C38.0775 4.24299 43.3705 4.37667 44.4634 4.52646ZM56.8892 38.8517C58.9607 40.2551 63.5749 43.373 67.1429 45.7803C70.7109 48.1875 73.7084 50.2252 73.804 50.3082C73.9653 50.4482 73.9516 50.5324 73.6159 51.4676C73.0839 52.9497 72.5814 54.1115 71.8863 55.4654C71.3183 56.5722 70.0729 58.7103 69.9964 58.7103C69.9785 58.7103 69.4342 58.4826 68.7869 58.2044C65.4721 56.7796 60.991 55.6942 55.5696 55.0028C51.576 54.4935 49.2105 54.3461 42.9065 54.2131C33.5531 54.0158 28.7383 53.833 28.7383 53.6753C28.7383 53.5882 29.5713 52.985 43.8926 42.6996C48.4881 39.3991 52.3883 36.5898 52.5595 36.4565C52.7308 36.3233 52.9276 36.2337 52.9968 36.2572C53.0662 36.2809 54.8177 37.4483 56.8892 38.8517ZM25.5034 44.7215C29.9758 46.8123 30.3993 47.0165 30.3955 47.0816C30.3918 47.1487 22.5198 52.8238 22.1588 53.0197C21.9865 53.1132 21.331 53.0514 19.0898 52.7305C17.5223 52.5061 15.5606 52.1861 14.7303 52.0192C13.9002 51.8525 12.7655 51.6293 12.209 51.5233C11.6526 51.4173 11.2115 51.287 11.2291 51.2336C11.2466 51.1803 12.0055 50.6302 12.9156 50.0112C13.8256 49.3923 16.3684 47.6601 18.5663 46.1619C20.7642 44.6636 22.6015 43.4356 22.649 43.4327C22.6967 43.4299 23.9812 44.0098 25.5034 44.7215ZM10.0179 55.3997C17.1679 57.072 25.4389 58.027 35.018 58.2862C37.2444 58.3465 41.2613 58.4422 43.9445 58.4991C46.6276 58.5559 49.3133 58.6493 49.9127 58.7065C50.5121 58.7638 51.5631 58.8576 52.2481 58.9148C56.278 59.2519 60.4016 59.9665 63.51 60.8667C65.1271 61.335 67.3505 62.1592 67.3505 62.2903C67.3505 62.4777 63.765 66.0073 62.7315 66.8372C57.2782 71.2169 51.2361 73.8142 44.4793 74.6833C42.46 74.9431 38.6497 74.9932 36.6212 74.7866C32.0294 74.3188 28.3566 73.287 24.3269 71.3326C18.2992 68.4091 13.0743 63.72 9.62066 58.1346C9.01927 57.162 7.87533 55.109 7.87533 55.0024C7.87533 54.9036 7.97685 54.9224 10.0179 55.3997ZM21.5764 94.5095V95.975H21.9916H22.4068V95.3992V94.8235H22.9777C23.5427 94.8235 23.5485 94.8204 23.5485 94.5095C23.5485 94.1986 23.5427 94.1955 22.9777 94.1955C22.4379 94.1955 22.4068 94.1812 22.4068 93.9338C22.4068 93.6815 22.431 93.6721 23.0815 93.6721H23.7561V93.3581V93.044H22.6663H21.5764V94.5095ZM25.7563 93.1993C25.231 93.4296 24.9827 93.9205 25.0285 94.6389C25.0732 95.3426 25.3374 95.7019 25.9453 95.8855C27.1859 96.2603 28.1851 95.3907 27.9522 94.1387C27.7879 93.2556 26.6946 92.7878 25.7563 93.1993ZM29.2741 94.1934C29.3069 95.2689 29.3265 95.3601 29.5795 95.615C29.9461 95.9844 30.9005 96.0786 31.437 95.7984C31.9068 95.5529 32.0464 95.137 32.054 93.96L32.0598 93.044H31.5927H31.1256V94.0699C31.1256 95.1577 31.0542 95.3469 30.6437 95.3469C30.2363 95.3469 30.0877 94.9769 30.0877 93.9628V93.044H29.6634H29.2389L29.2741 94.1934ZM33.4092 94.5095V95.975H33.8243H34.2395L34.2403 95.1637L34.2411 94.3525L34.7734 95.1637C35.3023 95.9696 35.3087 95.975 35.7587 95.975H36.2117V94.5095V93.044H35.8008H35.39L35.3597 93.8553L35.3294 94.6665L34.7813 93.8553C34.2524 93.0725 34.2188 93.044 33.8212 93.044H33.4092V94.5095ZM37.6648 94.5119V96L38.6535 95.9563C39.5443 95.9171 39.6682 95.8864 39.9064 95.6462C40.4454 95.1025 40.4429 93.9141 39.9016 93.3679C39.6565 93.1206 39.5448 93.0931 38.6487 93.06L37.6648 93.0238V94.5119ZM42.0464 93.3269C41.9885 93.488 41.751 94.1497 41.5186 94.7974L41.0963 95.975H41.5583C41.9645 95.975 42.0282 95.9434 42.0854 95.7133C42.1437 95.4789 42.2034 95.4516 42.6562 95.4516C43.1092 95.4516 43.1688 95.4789 43.2271 95.7133C43.2842 95.9427 43.3485 95.975 43.7481 95.975C43.9988 95.975 44.2017 95.9396 44.199 95.8965C44.1962 95.8533 43.9712 95.2056 43.699 94.4572L43.2041 93.0964L42.6779 93.0652C42.1843 93.0359 42.1454 93.052 42.0464 93.3269ZM44.8267 93.3581C44.8267 93.6605 44.8441 93.6721 45.2938 93.6721H45.7609V94.8235V95.975H46.1761H46.5913V94.8235V93.6721H47.0583C47.5081 93.6721 47.5254 93.6605 47.5254 93.3581V93.044H46.1761H44.8267V93.3581ZM48.771 94.5095V95.975H49.2381H49.7051V94.5095V93.044H49.2381H48.771V94.5095ZM51.8091 93.1993C51.2838 93.4296 51.0355 93.9205 51.0813 94.6389C51.126 95.3426 51.3902 95.7019 51.9981 95.8855C53.2387 96.2603 54.2379 95.3907 54.005 94.1387C53.8407 93.2556 52.7474 92.7878 51.8091 93.1993ZM55.3101 94.5095V95.975H55.7253H56.1405L56.1412 95.1637L56.142 94.3525L56.6744 95.1637C57.2033 95.9696 57.2097 95.975 57.6596 95.975H58.1126V94.5095V93.044H57.7018H57.291L57.2607 93.8553L57.2303 94.6665L56.6823 93.8553C56.1534 93.0725 56.1197 93.044 55.7222 93.044H55.3101V94.5095ZM26.916 93.9048C27.267 94.4102 27.0102 95.3469 26.5206 95.3469C26.0752 95.3469 25.8959 95.1066 25.8959 94.5095C25.8959 94.0926 25.943 93.9257 26.0914 93.8162C26.3804 93.6031 26.7328 93.6409 26.916 93.9048ZM39.2677 93.9048C39.4788 94.2088 39.478 94.9688 39.2663 95.1825C39.1765 95.2729 38.9896 95.3469 38.8511 95.3469C38.6052 95.3469 38.599 95.3264 38.599 94.5095C38.599 93.6912 38.6048 93.6721 38.8525 93.6721C38.997 93.6721 39.1758 93.7723 39.2677 93.9048ZM52.9688 93.9048C53.3198 94.4102 53.063 95.3469 52.5734 95.3469C52.128 95.3469 51.9487 95.1066 51.9487 94.5095C51.9487 94.0926 51.9958 93.9257 52.1442 93.8162C52.4332 93.6031 52.7856 93.6409 52.9688 93.9048ZM42.9505 94.6403C42.9549 94.6835 42.8197 94.7188 42.6502 94.7188C42.4487 94.7188 42.3579 94.6736 42.3877 94.588C42.4127 94.5161 42.4867 94.3158 42.5521 94.1431L42.6711 93.8291L42.8068 94.1955C42.8815 94.397 42.9461 94.5972 42.9505 94.6403Z" fill="black"/>
<path fill-rule="evenodd" clip-rule="evenodd" d="M21.5762 94.5091V95.9746H21.9914H22.4065V95.3989V94.8231H22.9774C23.5425 94.8231 23.5483 94.82 23.5483 94.5091C23.5483 94.1982 23.5425 94.1951 22.9774 94.1951C22.4377 94.1951 22.4065 94.1808 22.4065 93.9334C22.4065 93.6811 22.4307 93.6717 23.0812 93.6717H23.7559V93.3577V93.0436H22.666H21.5762V94.5091ZM25.756 93.1989C25.2307 93.4292 24.9824 93.9201 25.0282 94.6385C25.073 95.3422 25.3371 95.7015 25.9451 95.8851C27.1856 96.2599 28.1849 95.3903 27.9519 94.1383C27.7876 93.2552 26.6944 92.7874 25.756 93.1989ZM29.2739 94.193C29.3067 95.2685 29.3263 95.3597 29.5793 95.6146C29.9459 95.984 30.9003 96.0782 31.4368 95.798C31.9066 95.5525 32.0462 95.1366 32.0538 93.9596L32.0596 93.0436H31.5925H31.1254V94.0695C31.1254 95.1573 31.054 95.3465 30.6435 95.3465C30.2361 95.3465 30.0874 94.9765 30.0874 93.9624V93.0436H29.6631H29.2387L29.2739 94.193ZM33.4089 94.5091V95.9746H33.8241H34.2393L34.24 95.1633L34.2408 94.3521L34.7732 95.1633C35.3021 95.9692 35.3085 95.9746 35.7584 95.9746H36.2114V94.5091V93.0436H35.8006H35.3898L35.3595 93.8549L35.3291 94.6661L34.7811 93.8549C34.2522 93.0721 34.2185 93.0436 33.821 93.0436H33.4089V94.5091ZM37.6646 94.5115V95.9996L38.6532 95.9559C39.5441 95.9167 39.6679 95.886 39.9061 95.6458C40.4452 95.1021 40.4427 93.9137 39.9014 93.3675C39.6563 93.1202 39.5446 93.0927 38.6484 93.0596L37.6646 93.0234V94.5115ZM42.0462 93.3265C41.9883 93.4876 41.7508 94.1493 41.5184 94.797L41.0961 95.9746H41.558C41.9643 95.9746 42.0279 95.943 42.0851 95.7129C42.1435 95.4785 42.2031 95.4512 42.656 95.4512C43.109 95.4512 43.1685 95.4785 43.2269 95.7129C43.284 95.9423 43.3482 95.9746 43.7478 95.9746C43.9986 95.9746 44.2014 95.9392 44.1987 95.8961C44.1959 95.8529 43.971 95.2052 43.6987 94.4568L43.2038 93.096L42.6777 93.0648C42.184 93.0355 42.1451 93.0516 42.0462 93.3265ZM44.8265 93.3577C44.8265 93.6601 44.8438 93.6717 45.2936 93.6717H45.7606V94.8231V95.9746H46.1758H46.591V94.8231V93.6717H47.0581C47.5078 93.6717 47.5252 93.6601 47.5252 93.3577V93.0436H46.1758H44.8265V93.3577ZM48.7707 94.5091V95.9746H49.2378H49.7049V94.5091V93.0436H49.2378H48.7707V94.5091ZM51.8088 93.1989C51.2835 93.4292 51.0352 93.9201 51.081 94.6385C51.1258 95.3422 51.3899 95.7015 51.9979 95.8851C53.2384 96.2599 54.2377 95.3903 54.0047 94.1383C53.8404 93.2552 52.7472 92.7874 51.8088 93.1989ZM55.3099 94.5091V95.9746H55.7251H56.1402L56.141 95.1633L56.1418 94.3521L56.6742 95.1633C57.203 95.9692 57.2094 95.9746 57.6594 95.9746H58.1124V94.5091V93.0436H57.7015H57.2907L57.2604 93.8549L57.2301 94.6661L56.6821 93.8549C56.1531 93.0721 56.1195 93.0436 55.7219 93.0436H55.3099V94.5091ZM26.9158 93.9044C27.2668 94.4098 27.01 95.3465 26.5204 95.3465C26.075 95.3465 25.8956 95.1062 25.8956 94.5091C25.8956 94.0922 25.9428 93.9253 26.0912 93.8158C26.3802 93.6027 26.7326 93.6405 26.9158 93.9044ZM39.2675 93.9044C39.4786 94.2084 39.4778 94.9684 39.266 95.1821C39.1762 95.2725 38.9894 95.3465 38.8508 95.3465C38.6049 95.3465 38.5987 95.326 38.5987 94.5091C38.5987 93.6909 38.6045 93.6717 38.8523 93.6717C38.9968 93.6717 39.1755 93.7719 39.2675 93.9044ZM52.9686 93.9044C53.3196 94.4098 53.0628 95.3465 52.5732 95.3465C52.1278 95.3465 51.9484 95.1062 51.9484 94.5091C51.9484 94.0922 51.9956 93.9253 52.144 93.8158C52.433 93.6027 52.7854 93.6405 52.9686 93.9044ZM42.9503 94.6399C42.9546 94.6831 42.8195 94.7185 42.65 94.7185C42.4484 94.7185 42.3577 94.6732 42.3875 94.5876C42.4125 94.5157 42.4865 94.3155 42.5519 94.1427L42.6708 93.8287L42.8066 94.1951C42.8812 94.3966 42.9459 94.5968 42.9503 94.6399Z" fill="black"/>
<path fill-rule="evenodd" clip-rule="evenodd" d="M71.2545 86.1266C71.2545 85.2208 71.8657 84.5942 72.9829 84.3546C73.9776 84.1412 75.49 84.3932 75.9985 84.8569C76.2533 85.0893 76.588 85.7533 76.588 86.0263C76.588 86.214 76.522 86.2399 76.0431 86.241C75.7433 86.2416 75.3231 86.2714 75.1089 86.3071C74.7884 86.3604 74.7197 86.341 74.7197 86.1964C74.7197 86.0999 74.605 85.9054 74.4649 85.7641C74.1609 85.4574 73.5399 85.4147 73.2488 85.6804C72.8006 86.0893 73.1215 86.3492 74.5036 86.6963C76.2999 87.1476 76.8321 87.6592 76.7722 88.877C76.7427 89.4753 76.6909 89.6358 76.4182 89.9756C76.2425 90.1945 75.8716 90.4915 75.594 90.6356C75.1488 90.8666 74.9597 90.8975 73.9961 90.8967C73.3576 90.8962 72.7403 90.838 72.5114 90.7569C71.7673 90.4936 71.2211 89.8371 71.0394 88.9876L70.9665 88.6474L71.7014 88.6287C72.1055 88.6184 72.5383 88.6067 72.6631 88.6025C72.8338 88.5969 72.9114 88.6777 72.9758 88.9287C73.1641 89.6615 74.1071 89.9454 74.6859 89.4434C74.9395 89.2233 74.9623 89.1563 74.8718 88.8967C74.7593 88.5742 74.4204 88.4076 73.1047 88.0277C71.8155 87.6554 71.2545 87.079 71.2545 86.1266ZM3.51562 90.8456V87.6006V84.3557L4.83902 84.3558L6.16242 84.356L6.5692 85.9521C6.79288 86.83 7.02196 87.7132 7.07821 87.9147C7.17391 88.2572 7.21211 88.1547 7.66331 86.3445L8.14617 84.408L9.46376 84.3787L10.7813 84.3494V87.5975V90.8456H10.0029H9.22441V88.4206C9.22441 87.0869 9.19866 86.0216 9.16721 86.0533C9.13576 86.085 8.84129 87.1644 8.51288 88.4521L7.91575 90.7933L7.18139 90.8237L6.44693 90.8543L6.2329 90.0386C6.11519 89.5901 5.84097 88.5225 5.62352 87.6663L5.22826 86.1094L5.20034 88.4775L5.17242 90.8456H4.34402H3.51562ZM13.999 87.6006V90.8456H14.9851H15.9711V87.6006V84.3557H14.9851H13.999V87.6006ZM19.1888 90.8456V87.6006V84.3557H20.2268H21.2647V86.8156V89.2755H22.8217H24.3786V90.0605V90.8456H21.7837H19.1888ZM27.1811 87.6008V90.8656L29.0754 90.8183C29.5507 90.8064 30.0188 90.7841 30.4096 90.7568V88.8445C31.3044 88.8445 31.7516 88.8203 31.9751 89.0321C32.1523 89.2001 32.1889 89.5163 32.1965 90.1107C32.441 89.8754 32.656 89.5908 32.7972 89.2986C33.002 88.8746 33.0359 88.6407 33.0364 87.653C33.037 86.3421 32.8317 85.6905 32.2343 85.1075C31.6119 84.5 31.2728 84.4202 29.1273 84.3761L27.1811 84.3361V87.6008ZM40.7784 90.8456V87.6006V84.3557H41.8164H42.8543V85.5071V86.6586H43.9442H45.034V85.5071V84.3557H46.0201H47.0062V87.6006V90.8456H46.0201H45.034V89.5371V88.2287H43.9442H42.8543V89.5371V90.8456H41.8164H40.7784ZM50.3276 87.6006V90.8456H51.3137H52.2998V87.6006V84.3557H51.3137H50.3276V87.6006ZM55.5174 90.8456V87.6006V84.3557H56.5554H57.5933V86.8156V89.2755H59.1503H60.7072V90.0605V90.8456H58.1123H55.5174ZM63.4059 87.6006V90.8456H66.0008H68.5957V90.0605V89.2755H67.0388H65.4818V86.8156V84.3557H64.4439H63.4059V87.6006Z" fill="black"/>
</svg>
