<svg width="64" height="92" viewBox="0 0 64 92" fill="none" xmlns="http://www.w3.org/2000/svg">
<path fill-rule="evenodd" clip-rule="evenodd" d="M28.7617 0.158735C23.3284 0.742743 18.4941 2.48623 14.0642 5.45953C10.1503 8.08648 6.68871 11.7624 4.31112 15.8167C-0.727387 24.4083 -1.39152 34.9944 2.54061 44.0373C6.46576 53.0643 14.1378 59.6798 23.6965 62.2797C27.9306 63.4315 32.8175 63.6782 37.1484 62.959C41.8569 62.1772 46.0419 60.5253 49.9361 57.9116C53.8501 55.2846 57.3116 51.6087 59.6892 47.5544C65.4369 37.7533 65.4369 25.6178 59.6892 15.8167C57.6526 12.344 54.6986 9.01072 51.5138 6.59179C47.6054 3.62326 43.4254 1.71255 38.5601 0.670559C35.5269 0.0209812 31.837 -0.17179 28.7617 0.158735ZM35.5707 3.62117C39.1182 4.10762 41.8115 4.93297 44.8898 6.47715C47.8966 7.98549 50.2665 9.73148 52.6363 12.1844C57.0505 16.7536 59.6851 22.3572 60.4006 28.6992C60.5645 30.1522 60.5647 33.0992 60.4009 34.5327C60.2524 35.8321 60.1082 36.7519 60.053 36.7519C60.0145 36.7519 47.642 28.413 44.8293 26.4913C43.0236 25.2575 42.8454 25.1688 42.2618 25.2116C42.0069 25.2303 41.6851 25.3028 41.5465 25.3727C41.3344 25.4796 37.3506 28.326 29.2312 34.1716C28.3476 34.8078 27.5967 35.3283 27.5624 35.3283C27.498 35.3283 24.3258 33.8564 21.7451 32.6291C18.2017 30.9439 17.9572 30.8683 17.237 31.236C16.9356 31.3899 13.7754 33.5098 10.9503 35.4532C8.18271 37.3571 4.72423 39.6828 4.66079 39.6828C4.57318 39.6828 4.12404 37.9098 3.8971 36.6681C3.33394 33.587 3.31991 29.859 3.86015 26.8286C5.11375 19.7964 8.92647 13.6103 14.7443 9.16916C18.6271 6.20516 23.5381 4.22527 28.4711 3.63523C29.042 3.56699 29.6398 3.49505 29.7997 3.47554C30.462 3.3944 34.6964 3.50133 35.5707 3.62117ZM45.5113 31.0814C47.1686 32.2041 50.8599 34.6984 53.7143 36.6242C56.5687 38.55 58.9667 40.1801 59.0432 40.2465C59.1722 40.3586 59.1613 40.4259 58.8927 41.1741C58.4672 42.3597 58.0651 43.2892 57.5091 44.3723C57.0546 45.2578 56.0583 46.9682 55.9971 46.9682C55.9828 46.9682 55.5473 46.7861 55.0295 46.5635C52.3776 45.4236 48.7928 44.5553 44.4557 44.0022C41.2608 43.5948 39.3684 43.4768 34.3252 43.3705C26.8425 43.2126 22.9907 43.0664 22.9907 42.9402C22.9907 42.8706 23.657 42.388 35.114 34.1597C38.7905 31.5192 41.9106 29.2718 42.0476 29.1652C42.1846 29.0586 42.3421 28.9869 42.3975 29.0058C42.4529 29.0247 43.8542 29.9586 45.5113 31.0814ZM20.4027 35.7772C23.9806 37.4499 24.3194 37.6132 24.3164 37.6653C24.3134 37.719 18.0158 42.259 17.727 42.4158C17.5892 42.4905 17.0648 42.4411 15.2718 42.1844C14.0179 42.0048 12.4485 41.7488 11.7843 41.6154C11.1201 41.482 10.2124 41.3034 9.76722 41.2186C9.32206 41.1339 8.96924 41.0296 8.98327 40.9869C8.9973 40.9443 9.60438 40.5041 10.3324 40.009C11.0605 39.5138 13.0948 38.1281 14.8531 36.9295C16.6114 35.7309 18.0812 34.7485 18.1192 34.7462C18.1573 34.7439 19.1849 35.2079 20.4027 35.7772ZM8.01431 44.3198C13.7343 45.6576 20.3511 46.4216 28.0144 46.6289C29.7955 46.6772 33.0091 46.7538 35.1556 46.7993C37.3021 46.8447 39.4506 46.9194 39.9302 46.9652C40.4097 47.011 41.2505 47.0861 41.7985 47.1319C45.0224 47.4015 48.3213 47.9732 50.808 48.6934C52.1017 49.068 53.8804 49.7273 53.8804 49.8323C53.8804 49.9822 51.012 52.8058 50.1852 53.4698C45.8226 56.9735 40.9889 59.0514 35.5834 59.7467C33.968 59.9545 30.9198 59.9945 29.297 59.8292C25.6235 59.455 22.6853 58.6296 19.4615 57.066C14.6393 54.7272 10.4594 50.976 7.69653 46.5077C7.21542 45.7296 6.30027 44.0872 6.30027 44.0019C6.30027 43.9228 6.38148 43.9379 8.01431 44.3198ZM17.2611 90V91.1724H17.5933H17.9254V90.7118V90.2512H18.3821C18.8342 90.2512 18.8388 90.2487 18.8388 90C18.8388 89.7513 18.8342 89.7488 18.3821 89.7488C17.9503 89.7488 17.9254 89.7374 17.9254 89.5394C17.9254 89.3376 17.9448 89.3301 18.4652 89.3301H19.0049V89.0788V88.8276H18.133H17.2611V90ZM20.605 88.9518C20.1848 89.136 19.9861 89.5288 20.0228 90.1035C20.0586 90.6665 20.2699 90.9539 20.7562 91.1008C21.7487 91.4006 22.5481 90.7049 22.3617 89.7034C22.2303 88.9969 21.3557 88.6226 20.605 88.9518ZM23.4193 89.7471C23.4455 90.6075 23.4612 90.6805 23.6636 90.8844C23.9569 91.1799 24.7204 91.2553 25.1496 91.0311C25.5254 90.8347 25.6371 90.502 25.6432 89.5604L25.6478 88.8276H25.2742H24.9005V89.6483C24.9005 90.5185 24.8434 90.6699 24.515 90.6699C24.1891 90.6699 24.0701 90.3739 24.0701 89.5626V88.8276H23.7307H23.3912L23.4193 89.7471ZM26.7273 90V91.1724H27.0595H27.3916L27.3922 90.5234L27.3929 89.8744L27.8188 90.5234C28.2418 91.1681 28.247 91.1724 28.6069 91.1724H28.9693V90V88.8276H28.6407H28.312L28.2877 89.4766L28.2635 90.1256L27.8251 89.4766C27.4019 88.8504 27.375 88.8276 27.057 88.8276H26.7273V90ZM30.1318 90.0019V91.1924L30.9228 91.1575C31.6355 91.1261 31.7345 91.1015 31.9251 90.9093C32.3563 90.4744 32.3543 89.5237 31.9213 89.0867C31.7252 88.8888 31.6359 88.8669 30.9189 88.8404L30.1318 88.8115V90.0019ZM33.6371 89.0539C33.5908 89.1828 33.4008 89.7122 33.2149 90.2303L32.877 91.1724H33.2466C33.5716 91.1724 33.6225 91.1471 33.6683 90.963C33.715 90.7755 33.7627 90.7537 34.125 90.7537C34.4874 90.7537 34.535 90.7755 34.5817 90.963C34.6274 91.1466 34.6788 91.1724 34.9985 91.1724C35.1991 91.1724 35.3613 91.1441 35.3592 91.1096C35.3569 91.0751 35.177 90.5569 34.9592 89.9581L34.5633 88.8695L34.1423 88.8445C33.7474 88.8211 33.7163 88.834 33.6371 89.0539ZM35.8614 89.0788C35.8614 89.3208 35.8752 89.3301 36.235 89.3301H36.6087V90.2512V91.1724H36.9409H37.273V90.2512V89.3301H37.6467C38.0065 89.3301 38.0203 89.3208 38.0203 89.0788V88.8276H36.9409H35.8614V89.0788ZM39.0168 90V91.1724H39.3904H39.7641V90V88.8276H39.3904H39.0168V90ZM41.4473 88.9518C41.027 89.136 40.8284 89.5288 40.865 90.1035C40.9008 90.6665 41.1121 90.9539 41.5985 91.1008C42.5909 91.4006 43.3903 90.7049 43.204 89.7034C43.0725 88.9969 42.1979 88.6226 41.4473 88.9518ZM44.2481 90V91.1724H44.5802H44.9124L44.913 90.5234L44.9136 89.8744L45.3395 90.5234C45.7626 91.1681 45.7677 91.1724 46.1277 91.1724H46.4901V90V88.8276H46.1614H45.8328L45.8085 89.4766L45.7843 90.1256L45.3458 89.4766C44.9227 88.8504 44.8958 88.8276 44.5777 88.8276H44.2481V90ZM21.5328 89.5162C21.8136 89.9205 21.6082 90.6699 21.2165 90.6699C20.8602 90.6699 20.7167 90.4777 20.7167 90C20.7167 89.6665 20.7544 89.533 20.8731 89.4454C21.1043 89.2749 21.3862 89.3051 21.5328 89.5162ZM31.4142 89.5162C31.5831 89.7594 31.5824 90.3675 31.413 90.5384C31.3412 90.6107 31.1917 90.6699 31.0809 90.6699C30.8841 90.6699 30.8792 90.6535 30.8792 90C30.8792 89.3454 30.8838 89.3301 31.082 89.3301C31.1976 89.3301 31.3406 89.4102 31.4142 89.5162ZM42.375 89.5162C42.6559 89.9205 42.4504 90.6699 42.0587 90.6699C41.7024 90.6699 41.5589 90.4777 41.5589 90C41.5589 89.6665 41.5966 89.533 41.7154 89.4454C41.9466 89.2749 42.2285 89.3051 42.375 89.5162ZM34.3604 90.1047C34.3639 90.1392 34.2558 90.1675 34.1202 90.1675C33.9589 90.1675 33.8863 90.1313 33.9102 90.0628C33.9302 90.0053 33.9894 89.8451 34.0417 89.7069L34.1369 89.4557L34.2455 89.7488C34.3052 89.91 34.3569 90.0702 34.3604 90.1047Z" fill="white"/>
<path fill-rule="evenodd" clip-rule="evenodd" d="M57.0036 78.501C57.0036 77.7764 57.4926 77.2751 58.3863 77.0834C59.182 76.9127 60.392 77.1142 60.7988 77.4852C61.0026 77.6711 61.2704 78.2024 61.2704 78.4208C61.2704 78.5709 61.2176 78.5917 60.8345 78.5925C60.5947 78.593 60.2584 78.6168 60.0871 78.6453C59.8307 78.6881 59.7758 78.6725 59.7758 78.5568C59.7758 78.4796 59.684 78.324 59.5719 78.211C59.3287 77.9656 58.832 77.9315 58.599 78.144C58.2405 78.4712 58.4972 78.6791 59.6029 78.9568C61.0399 79.3178 61.4657 79.7271 61.4177 80.7013C61.3941 81.1799 61.3527 81.3084 61.1346 81.5802C60.994 81.7553 60.6973 81.9929 60.4752 82.1082C60.119 82.293 59.9677 82.3177 59.1969 82.317C58.6861 82.3166 58.1922 82.2701 58.0091 82.2052C57.4139 81.9946 56.9769 81.4694 56.8315 80.7898L56.7732 80.5176L57.3611 80.5026C57.6844 80.4944 58.0306 80.485 58.1305 80.4817C58.2671 80.4773 58.3291 80.5419 58.3806 80.7426C58.5313 81.3289 59.2857 81.556 59.7487 81.1544C59.9516 80.9784 59.9698 80.9248 59.8974 80.7171C59.8075 80.4591 59.5364 80.3258 58.4838 80.0219C57.4524 79.724 57.0036 79.2629 57.0036 78.501ZM2.8125 82.2762V79.6802V77.0843L3.87122 77.0843L4.92994 77.0845L5.25536 78.3614C5.4343 79.0637 5.61757 79.7702 5.66257 79.9314C5.73913 80.2054 5.76969 80.1235 6.13065 78.6753L6.51694 77.1261L7.57101 77.1027L8.62508 77.0792V79.6777V82.2762H8.0023H7.37952V80.3362C7.37952 79.2692 7.35893 78.417 7.33377 78.4424C7.30861 78.4677 7.07303 79.3313 6.81031 80.3614L6.3326 82.2343L5.74511 82.2587L5.15754 82.2831L4.98632 81.6306C4.89216 81.2718 4.67278 80.4177 4.49881 79.7327L4.18261 78.4872L4.16027 80.3817L4.13793 82.2762H3.47522H2.8125ZM11.1992 79.6802V82.2762H11.9881H12.7769V79.6802V77.0843H11.9881H11.1992V79.6802ZM15.3511 82.2762V79.6802V77.0843H16.1814H17.0118V79.0522V81.0201H18.2573H19.5029V81.6481V82.2762H17.427H15.3511ZM21.7449 79.6804V82.2922L23.2603 82.2543C24.1026 82.2332 24.9167 82.1714 25.093 82.1151C25.5178 81.9795 26.0042 81.5221 26.2378 81.0386C26.4016 80.6994 26.4288 80.5123 26.4291 79.7221C26.4296 78.6734 26.2653 78.1521 25.7875 77.6857C25.2895 77.1997 25.0182 77.1358 23.3018 77.1006L21.7449 77.0686V79.6804ZM32.6227 82.2762V79.6802V77.0843H33.4531H34.2835V78.0054V78.9265H35.1553H36.0272V78.0054V77.0843H36.8161H37.6049V79.6802V82.2762H36.8161H36.0272V81.2294V80.1827H35.1553H34.2835V81.2294V82.2762H33.4531H32.6227ZM40.2621 79.6802V82.2762H41.051H41.8398V79.6802V77.0843H41.051H40.2621V79.6802ZM44.4139 82.2762V79.6802V77.0843H45.2443H46.0747V79.0522V81.0201H47.3202H48.5658V81.6481V82.2762H46.4899H44.4139ZM50.7247 79.6802V82.2762H52.8007H54.8766V81.6481V81.0201H53.631H52.3855V79.0522V77.0843H51.5551H50.7247V79.6802ZM23.3707 78.4583V81.2311C23.9817 81.2311 24.7455 80.769 24.7455 79.8447C24.7455 79.1124 24.7455 78.7658 24.5725 78.6024C24.4003 78.4396 24.0566 78.4583 23.3707 78.4583Z" fill="#D9EDFF"/>
</svg>
