<svg width="48" height="69" viewBox="0 0 48 69" fill="none" xmlns="http://www.w3.org/2000/svg">
<path fill-rule="evenodd" clip-rule="evenodd" d="M21.5713 0.119051C17.4963 0.557057 13.8706 1.86467 10.5482 4.09465C7.6127 6.06486 5.01654 8.82183 3.23334 11.8625C-0.54554 18.3062 -1.04364 26.2458 1.90546 33.028C4.84932 39.7982 10.6033 44.7598 17.7724 46.7098C20.948 47.5736 24.6131 47.7587 27.8613 47.2193C31.3927 46.6329 34.5315 45.394 37.4521 43.4337C40.3875 41.4635 42.9837 38.7065 44.7669 35.6658C49.0777 28.315 49.0777 19.2133 44.7669 11.8625C43.2395 9.25802 41.024 6.75804 38.6354 4.94384C35.704 2.71744 32.569 1.28441 28.9201 0.502919C26.6452 0.0157359 23.8777 -0.128843 21.5713 0.119051ZM26.6781 2.71587C29.3387 3.08071 31.3586 3.69972 33.6674 4.85786C35.9225 5.98911 37.6999 7.29861 39.4772 9.13831C42.7879 12.5652 44.7638 16.7679 45.3004 21.5244C45.4234 22.6141 45.4235 24.8244 45.3007 25.8996C45.1893 26.874 45.0812 27.5639 45.0397 27.5639C45.0108 27.5639 35.7315 21.3097 33.622 19.8685C32.2677 18.9431 32.1341 18.8766 31.6963 18.9087C31.5052 18.9227 31.2638 18.9771 31.1599 19.0295C31.0008 19.1097 28.013 21.2445 21.9234 25.6287C21.2607 26.1059 20.6975 26.4962 20.6718 26.4962C20.6235 26.4962 18.2444 25.3923 16.3088 24.4718C13.6513 23.2079 13.4679 23.1512 12.9278 23.427C12.7017 23.5424 10.3316 25.1323 8.21275 26.5899C6.13703 28.0178 3.54317 29.7621 3.49559 29.7621C3.42989 29.7621 3.09303 28.4323 2.92282 27.5011C2.50046 25.1902 2.48993 22.3942 2.89511 20.1214C3.83531 14.8473 6.69485 10.2077 11.0582 6.87687C13.9703 4.65387 17.6536 3.16895 21.3533 2.72643C21.7815 2.67524 22.2299 2.62129 22.3498 2.60666C22.8465 2.5458 26.0223 2.626 26.6781 2.71587ZM34.1335 23.311C35.3764 24.1531 38.1449 26.0238 40.2857 27.4682C42.4265 28.9125 44.225 30.1351 44.2824 30.1849C44.3792 30.2689 44.3709 30.3194 44.1695 30.8805C43.8504 31.7698 43.5488 32.4669 43.1318 33.2792C42.791 33.9433 42.0438 35.2262 41.9979 35.2262C41.9871 35.2262 41.6605 35.0896 41.2721 34.9226C39.2832 34.0677 36.5946 33.4165 33.3418 33.0017C30.9456 32.6961 29.5263 32.6076 25.7439 32.5279C20.1319 32.4095 17.243 32.2998 17.243 32.2052C17.243 32.1529 17.7428 31.791 26.3355 25.6198C29.0929 23.6394 31.433 21.9539 31.5357 21.8739C31.6385 21.794 31.7565 21.7402 31.7981 21.7543C31.8397 21.7685 32.8906 22.469 34.1335 23.311ZM15.3021 26.8329C17.9855 28.0874 18.2396 28.2099 18.2373 28.249C18.2351 28.2892 13.5119 31.6943 13.2953 31.8118C13.1919 31.8679 12.7986 31.8309 11.4539 31.6383C10.5134 31.5036 9.33636 31.3116 8.8382 31.2115C8.3401 31.1115 7.65929 30.9776 7.32542 30.914C6.99155 30.8504 6.72693 30.7722 6.73745 30.7402C6.74798 30.7082 7.20329 30.3781 7.74934 30.0067C8.29539 29.6354 9.82106 28.5961 11.1398 27.6971C12.4585 26.7982 13.5609 26.0613 13.5894 26.0596C13.618 26.058 14.3887 26.4059 15.3021 26.8329ZM6.01073 33.2398C10.3007 34.2432 15.2633 34.8162 21.0108 34.9717C22.3466 35.0079 24.7568 35.0653 26.3667 35.0994C27.9765 35.1335 29.588 35.1896 29.9476 35.2239C30.3073 35.2583 30.9378 35.3145 31.3489 35.3489C33.7668 35.5511 36.241 35.9799 38.106 36.52C39.0763 36.801 40.4103 37.2955 40.4103 37.3742C40.4103 37.4866 38.259 39.6044 37.6389 40.1023C34.3669 42.7301 30.7417 44.2885 26.6876 44.81C25.476 44.9659 23.1898 44.9959 21.9727 44.8719C19.2176 44.5913 17.0139 43.9722 14.5961 42.7995C10.9795 41.0454 7.84456 38.232 5.7724 34.8808C5.41156 34.2972 4.7252 33.0654 4.7252 33.0014C4.7252 32.9421 4.78611 32.9534 6.01073 33.2398ZM12.9458 67.5V68.3793H13.195H13.4441V68.0338V67.6884H13.7866C14.1256 67.6884 14.1291 67.6865 14.1291 67.5C14.1291 67.3135 14.1256 67.3116 13.7866 67.3116C13.4627 67.3116 13.4441 67.303 13.4441 67.1546C13.4441 67.0032 13.4586 66.9976 13.8489 66.9976H14.2537V66.8091V66.6207H13.5998H12.9458V67.5ZM15.4538 66.7139C15.1386 66.852 14.9896 67.1466 15.0171 67.5776C15.0439 67.9999 15.2024 68.2154 15.5672 68.3256C16.3115 68.5505 16.9111 68.0287 16.7713 67.2775C16.6727 66.7477 16.0168 66.467 15.4538 66.7139ZM17.5645 67.3103C17.5842 67.9557 17.5959 68.0104 17.7477 68.1633C17.9677 68.3849 18.5403 68.4415 18.8622 68.2733C19.1441 68.126 19.2278 67.8765 19.2324 67.1703L19.2359 66.6207H18.9556H18.6754V67.2362C18.6754 67.8889 18.6325 68.0024 18.3862 68.0024C18.1418 68.0024 18.0526 67.7804 18.0526 67.172V66.6207H17.798H17.5434L17.5645 67.3103ZM20.0455 67.5V68.3793H20.2946H20.5437L20.5442 67.8925L20.5446 67.4058L20.8641 67.8925C21.1814 68.3761 21.1852 68.3793 21.4552 68.3793H21.727V67.5V66.6207H21.4805H21.234L21.2158 67.1075L21.1976 67.5942L20.8688 67.1075C20.5514 66.6378 20.5313 66.6207 20.2927 66.6207H20.0455V67.5ZM22.5989 67.5014V68.3943L23.1921 68.3681C23.7266 68.3445 23.8009 68.3261 23.9438 68.182C24.2672 67.8558 24.2657 67.1428 23.941 66.815C23.7939 66.6666 23.7269 66.6502 23.1892 66.6303L22.5989 66.6086V67.5014ZM25.2279 66.7904C25.1931 66.8871 25.0506 67.2841 24.9112 67.6727L24.6578 68.3793H24.935C25.1787 68.3793 25.2169 68.3603 25.2512 68.2223C25.2862 68.0816 25.322 68.0652 25.5937 68.0652C25.8655 68.0652 25.9013 68.0816 25.9363 68.2223C25.9705 68.3599 26.0091 68.3793 26.2488 68.3793C26.3993 68.3793 26.521 68.358 26.5194 68.3322C26.5177 68.3063 26.3827 67.9177 26.2194 67.4686L25.9224 66.6521L25.6068 66.6334C25.3106 66.6158 25.2872 66.6255 25.2279 66.7904ZM26.896 66.8091C26.896 66.9906 26.9064 66.9976 27.1763 66.9976H27.4565V67.6884V68.3793H27.7056H27.9548V67.6884V66.9976H28.235C28.5048 66.9976 28.5152 66.9906 28.5152 66.8091V66.6207H27.7056H26.896V66.8091ZM29.2626 67.5V68.3793H29.5428H29.8231V67.5V66.6207H29.5428H29.2626V67.5ZM31.0854 66.7139C30.7703 66.852 30.6213 67.1466 30.6488 67.5776C30.6756 67.9999 30.8341 68.2154 31.1989 68.3256C31.9432 68.5505 32.5427 68.0287 32.403 67.2775C32.3044 66.7477 31.6484 66.467 31.0854 66.7139ZM33.1861 67.5V68.3793H33.4352H33.6843L33.6847 67.8925L33.6852 67.4058L34.0046 67.8925C34.3219 68.3761 34.3258 68.3793 34.5958 68.3793H34.8676V67.5V66.6207H34.6211H34.3746L34.3564 67.1075L34.3382 67.5942L34.0094 67.1075C33.692 66.6378 33.6718 66.6207 33.4333 66.6207H33.1861V67.5ZM16.1496 67.1372C16.3602 67.4404 16.2061 68.0024 15.9124 68.0024C15.6451 68.0024 15.5375 67.8582 15.5375 67.5C15.5375 67.2498 15.5658 67.1497 15.6549 67.084C15.8282 66.9562 16.0397 66.9788 16.1496 67.1372ZM23.5606 67.1372C23.6873 67.3196 23.6868 67.7756 23.5598 67.9038C23.5059 67.958 23.3938 68.0024 23.3106 68.0024C23.1631 68.0024 23.1594 67.9901 23.1594 67.5C23.1594 67.009 23.1629 66.9976 23.3115 66.9976C23.3982 66.9976 23.5054 67.0577 23.5606 67.1372ZM31.7813 67.1372C31.9919 67.4404 31.8378 68.0024 31.5441 68.0024C31.2768 68.0024 31.1692 67.8582 31.1692 67.5C31.1692 67.2498 31.1975 67.1497 31.2865 67.084C31.4599 66.9562 31.6714 66.9788 31.7813 67.1372ZM25.7703 67.5785C25.7729 67.6044 25.6918 67.6256 25.5901 67.6256C25.4692 67.6256 25.4148 67.5985 25.4326 67.5471C25.4476 67.504 25.492 67.3838 25.5313 67.2802L25.6026 67.0918L25.6841 67.3116C25.7289 67.4325 25.7677 67.5526 25.7703 67.5785Z" fill="#00559E"/>
<path fill-rule="evenodd" clip-rule="evenodd" d="M42.7527 58.8759C42.7527 58.3324 43.1194 57.9564 43.7897 57.8127C44.3865 57.6846 45.294 57.8358 45.5991 58.114C45.752 58.2535 45.9528 58.6519 45.9528 58.8157C45.9528 58.9283 45.9132 58.9439 45.6259 58.9445C45.446 58.9449 45.1938 58.9627 45.0654 58.9841C44.873 59.0162 44.8318 59.0045 44.8318 58.9177C44.8318 58.8598 44.763 58.7431 44.6789 58.6584C44.4965 58.4743 44.124 58.4487 43.9493 58.6081C43.6804 58.8535 43.8729 59.0094 44.7022 59.2177C45.7799 59.4885 46.0993 59.7955 46.0633 60.5261C46.0456 60.8851 46.0145 60.9814 45.8509 61.1853C45.7455 61.3166 45.523 61.4948 45.3564 61.5813C45.0893 61.7199 44.9758 61.7384 44.3977 61.7379C44.0145 61.7376 43.6442 61.7027 43.5069 61.6541C43.0604 61.496 42.7327 61.1022 42.6236 60.5925L42.5799 60.3883L43.0208 60.3771C43.2633 60.3709 43.523 60.3639 43.5978 60.3614C43.7003 60.3581 43.7468 60.4066 43.7855 60.5571C43.8985 60.9968 44.4643 61.1671 44.8115 60.8659C44.9637 60.7339 44.9774 60.6937 44.9231 60.5379C44.8556 60.3444 44.6523 60.2444 43.8628 60.0165C43.0893 59.7931 42.7527 59.4473 42.7527 58.8759ZM2.10938 61.7073V59.7603V57.8133L2.90341 57.8134L3.69745 57.8135L3.94152 58.7712C4.07573 59.2979 4.21317 59.8278 4.24693 59.9487C4.30435 60.1542 4.32727 60.0927 4.59799 59.0066L4.8877 57.8447L5.67826 57.8271L6.46881 57.8095V59.7584V61.7073H6.00173H5.53464V60.2522C5.53464 59.452 5.5192 58.8129 5.50033 58.8319C5.48146 58.8509 5.30478 59.4986 5.10773 60.2711L4.74945 61.6759L4.30883 61.6941L3.86816 61.7125L3.73974 61.2231C3.66912 60.954 3.50458 60.3134 3.37411 59.7997L3.13696 58.8656L3.1202 60.2864L3.10345 61.7073H2.60641H2.10938ZM8.39941 59.7603V61.7073H8.99105H9.58269V59.7603V57.8133H8.99105H8.39941V59.7603ZM11.5133 61.7073V59.7603V57.8133H12.1361H12.7588V59.2892V60.7652H13.693H14.6272V61.2362V61.7073H13.0702H11.5133ZM16.3087 59.7604V61.7193L17.4452 61.6909C18.0769 61.675 18.6875 61.6287 18.8198 61.5865C19.1384 61.4847 19.5031 61.1417 19.6783 60.7791C19.8012 60.5247 19.8216 60.3843 19.8218 59.7917C19.8222 59.0052 19.699 58.6142 19.3406 58.2644C18.9671 57.8999 18.7637 57.852 17.4764 57.8256L16.3087 57.8016V59.7604ZM24.467 61.7073V59.7603V57.8133H25.0898H25.7126V58.5042V59.195H26.3665H27.0204V58.5042V57.8133H27.6121H28.2037V59.7603V61.7073H27.6121H27.0204V60.9222V60.1371H26.3665H25.7126V60.9222V61.7073H25.0898H24.467ZM30.1966 59.7603V61.7073H30.7882H31.3799V59.7603V57.8133H30.7882H30.1966V59.7603ZM33.3105 61.7073V59.7603V57.8133H33.9332H34.556V59.2892V60.7652H35.4902H36.4243V61.2362V61.7073H34.8674H33.3105ZM38.0436 59.7603V61.7073H39.6005H41.1574V61.2362V60.7652H40.2233H39.2891V59.2892V57.8133H38.6663H38.0436V59.7603ZM18.4297 58.9518C18.3005 58.8297 18.0427 58.8437 17.5283 58.8437V60.9234C17.9866 60.9234 18.5594 60.5768 18.5594 59.8836C18.5594 59.3343 18.5594 59.0744 18.4297 58.9518Z" fill="#00559E"/>
</svg>
