<svg width="40" height="40" viewBox="0 0 40 40" fill="none" xmlns="http://www.w3.org/2000/svg">
<path fill-rule="evenodd" clip-rule="evenodd" d="M17.9761 0.100205C14.5802 0.468875 11.5588 1.56949 8.79013 3.44646C6.34392 5.10479 4.18045 7.42533 2.69445 9.98467C-0.454617 15.4083 -0.869698 22.0911 1.58788 27.7996C4.0411 33.4982 8.83611 37.6743 14.8103 39.3156C17.4566 40.0427 20.5109 40.1984 23.2178 39.7445C26.1606 39.2509 28.7762 38.2081 31.2101 36.5581C33.6563 34.8998 35.8198 32.5792 37.3058 30.0199C40.8981 23.8327 40.8981 16.1719 37.3058 9.98467C36.0329 7.79247 34.1866 5.68824 32.1961 4.16123C29.7533 2.28727 27.1409 1.08109 24.1 0.423307C22.2043 0.0132449 19.8981 -0.108447 17.9761 0.100205ZM22.2317 2.28595C24.4489 2.59303 26.1322 3.11406 28.0561 4.08886C29.9354 5.04104 31.4166 6.14324 32.8977 7.69171C35.6566 10.5761 37.3032 14.1135 37.7504 18.1171C37.8528 19.0343 37.8529 20.8947 37.7506 21.7996C37.6578 22.6199 37.5676 23.2005 37.5331 23.2005C37.509 23.2005 29.7762 17.9364 28.0183 16.7233C26.8898 15.9444 26.7784 15.8884 26.4136 15.9155C26.2543 15.9273 26.0532 15.973 25.9666 16.0171C25.834 16.0846 23.3442 17.8815 18.2695 21.5717C17.7173 21.9733 17.2479 22.3018 17.2265 22.3018C17.1862 22.3018 15.2036 21.3727 13.5907 20.5979C11.3761 19.5341 11.2233 19.4864 10.7732 19.7185C10.5848 19.8156 8.60963 21.1539 6.84396 22.3807C5.11419 23.5826 2.95264 25.0507 2.91299 25.0507C2.85824 25.0507 2.57752 23.9315 2.43569 23.1477C2.08371 21.2026 2.07494 18.8492 2.41259 16.9362C3.1961 12.4969 5.57904 8.59182 9.21517 5.78826C11.6419 3.91716 14.7113 2.66731 17.7944 2.29483C18.1512 2.25175 18.5249 2.20634 18.6248 2.19402C19.0387 2.1428 21.6852 2.2103 22.2317 2.28595ZM28.4446 19.6209C29.4804 20.3296 31.7874 21.9042 33.5714 23.12C35.3554 24.3357 36.8542 25.3647 36.902 25.4066C36.9826 25.4774 36.9758 25.5199 36.8079 25.9921C36.542 26.7406 36.2907 27.3274 35.9432 28.0111C35.6591 28.5701 35.0365 29.6499 34.9982 29.6499C34.9892 29.6499 34.7171 29.5349 34.3934 29.3944C32.736 28.6748 30.4955 28.1267 27.7848 27.7775C25.788 27.5203 24.6053 27.4458 21.4532 27.3787C16.7766 27.279 14.3692 27.1867 14.3692 27.1071C14.3692 27.0631 14.7856 26.7584 21.9463 21.5641C24.2441 19.8973 26.1941 18.4786 26.2798 18.4113C26.3654 18.344 26.4638 18.2987 26.4984 18.3106C26.5331 18.3226 27.4089 18.9121 28.4446 19.6209ZM12.7517 22.5853C14.9879 23.6411 15.1996 23.7443 15.1978 23.7772C15.1959 23.8111 11.2599 26.677 11.0794 26.776C10.9933 26.8232 10.6655 26.792 9.54488 26.6299C8.76117 26.5166 7.7803 26.355 7.36517 26.2707C6.95009 26.1865 6.38274 26.0738 6.10451 26.0203C5.82629 25.9668 5.60577 25.901 5.61454 25.874C5.62331 25.8471 6.00274 25.5692 6.45778 25.2567C6.91282 24.9441 8.18422 24.0693 9.28316 23.3127C10.3821 22.556 11.3007 21.9358 11.3245 21.9344C11.3483 21.933 11.9906 22.2258 12.7517 22.5853ZM5.00895 27.978C8.58394 28.8225 12.7194 29.3048 17.509 29.4357C18.6222 29.4661 20.6307 29.5145 21.9722 29.5432C23.3138 29.5719 24.6566 29.619 24.9564 29.648C25.2561 29.6769 25.7815 29.7242 26.1241 29.7532C28.139 29.9234 30.2008 30.2843 31.755 30.7389C32.5636 30.9754 33.6752 31.3916 33.6752 31.4578C33.6752 31.5525 31.8825 33.335 31.3658 33.7541C28.6391 35.9659 25.6181 37.2776 22.2397 37.7166C21.23 37.8478 19.3249 37.873 18.3106 37.7687C16.0147 37.5324 14.1783 37.0114 12.1634 36.0244C9.14958 34.5479 6.53713 32.1799 4.81033 29.3591C4.50963 28.868 3.93767 27.8312 3.93767 27.7773C3.93767 27.7274 3.98842 27.7369 5.00895 27.978Z" fill="white"/>
</svg>
